<svg width="18" height="20" viewBox="0 0 18 20" fill="none" xmlns="http://www.w3.org/2000/svg">
<path d="M17 19C17 15.517 13.4144 12.7 9 12.7C4.58556 12.7 1 15.517 1 19M9 10C10.235 10 11.4194 9.52589 12.2927 8.68198C13.166 7.83807 13.6566 6.69347 13.6566 5.5C13.6566 4.30653 13.166 3.16193 12.2927 2.31802C11.4194 1.47411 10.235 1 9 1C7.765 1 6.58058 1.47411 5.7073 2.31802C4.83402 3.16193 4.34342 4.30653 4.34342 5.5C4.34342 6.69347 4.83402 7.83807 5.7073 8.68198C6.58058 9.52589 7.765 10 9 10Z" stroke="white" stroke-width="1.5" stroke-linecap="round" stroke-linejoin="round"/>
</svg>
