<svg width="20" height="20" viewBox="0 0 20 20" fill="none" xmlns="http://www.w3.org/2000/svg">
<path d="M10 19C14.9706 19 19 14.9706 19 10C19 5.02944 14.9706 1 10 1C5.02944 1 1 5.02944 1 10C1 14.9706 5.02944 19 10 19Z" stroke="white" stroke-width="1.5" stroke-linecap="round" stroke-linejoin="round"/>
<path d="M11.0398 4.10791L10.8182 12.2556H9.18757L8.9603 4.10791H11.0398ZM10.0001 15.892C9.62507 15.892 9.3031 15.7594 9.03416 15.4943C8.76522 15.2253 8.63264 14.9034 8.63643 14.5284C8.63264 14.1572 8.76522 13.839 9.03416 13.5738C9.3031 13.3087 9.62507 13.1761 10.0001 13.1761C10.3599 13.1761 10.6762 13.3087 10.9489 13.5738C11.2217 13.839 11.3599 14.1572 11.3637 14.5284C11.3599 14.7784 11.2936 15.0075 11.1648 15.2159C11.0398 15.4204 10.8751 15.5852 10.6705 15.7102C10.466 15.8314 10.2425 15.892 10.0001 15.892Z" fill="white"/>
</svg>
